<?xml version="1.0" encoding="UTF-8"?>
<svg xmlns="http://www.w3.org/2000/svg" xmlns:xlink="http://www.w3.org/1999/xlink" width="64px" height="64px" viewBox="0 0 64 64" version="1.1">
<g id="surface1">
<path style=" stroke:none;fill-rule:evenodd;fill:rgb(5.490196%,6.666667%,15.686275%);fill-opacity:1;" d="M 63.96875 39.371094 C 63.054688 43.738281 58.988281 54.945312 46.023438 61.015625 L 40.816406 55.214844 L 32.027344 63.964844 C 27.03125 63.898438 22.113281 62.6875 17.664062 60.425781 C 13.214844 58.164062 9.355469 54.914062 6.386719 50.929688 C 7.316406 51.21875 8.28125 51.398438 9.257812 51.464844 C 10.695312 51.492188 12.253906 50.96875 12.253906 48.574219 L 12.253906 24.957031 C 12.273438 24.347656 12.148438 23.746094 11.894531 23.191406 C 11.636719 22.640625 11.253906 22.15625 10.773438 21.777344 C 10.292969 21.398438 9.734375 21.136719 9.132812 21.011719 C 8.53125 20.886719 7.910156 20.902344 7.320312 21.054688 C 3.25 21.984375 0 32.042969 0 32.042969 C -0.0429688 27.402344 0.929688 22.800781 2.859375 18.570312 C 4.789062 14.335938 7.625 10.570312 11.171875 7.535156 C 15.839844 3.535156 21.550781 0.921875 27.652344 0 C 23.210938 2.507812 20.714844 6.597656 20.714844 10.03125 C 20.714844 15.554688 24.074219 14.882812 25.066406 14.070312 L 25.066406 45.949219 C 25.234375 46.351562 25.457031 46.726562 25.722656 47.070312 C 26.164062 47.679688 26.75 48.171875 27.425781 48.511719 C 28.101562 48.851562 28.847656 49.027344 29.605469 49.019531 C 32.964844 49.019531 37.328125 45.21875 37.328125 45.21875 L 37.328125 19.414062 C 37.328125 16.789062 35.332031 13.621094 33.332031 12.53125 C 33.332031 12.53125 37.03125 11.882812 39.886719 14.046875 C 40.425781 13.398438 40.996094 12.777344 41.597656 12.1875 C 48.261719 5.707031 54.539062 3.859375 59.769531 2.9375 C 59.769531 2.9375 50.261719 10.339844 50.261719 20.277344 C 50.261719 27.664062 50.453125 45.683594 50.453125 45.683594 C 53.980469 49.058594 59.226562 44.183594 63.96875 39.371094 Z M 63.96875 39.371094 "/>
</g>
</svg>
