<?xml version="1.0" encoding="UTF-8"?>
<svg xmlns="http://www.w3.org/2000/svg" xmlns:xlink="http://www.w3.org/1999/xlink" width="64px" height="64px" viewBox="0 0 64 67" version="1.1">
<g id="surface1">
<path style=" stroke:none;fill-rule:nonzero;fill:rgb(100%,100%,100%);fill-opacity:1;" d="M 10.300781 0 L 10.300781 0.03125 C 9.125 0.660156 8.003906 1.382812 6.855469 2.054688 C 4.621094 3.378906 2.394531 4.710938 0.160156 6.035156 C -0.0664062 6.113281 0.015625 6.371094 0 6.546875 C 0 22.097656 0 37.652344 0 53.203125 C 1.882812 52.121094 3.742188 50.980469 5.613281 49.878906 C 5.613281 54.46875 5.613281 59.0625 5.613281 63.675781 C 5.671875 65.28125 6.859375 66.632812 8.460938 66.917969 C 9.28125 67.03125 10.132812 66.945312 10.96875 66.972656 C 28.601562 66.972656 46.234375 66.972656 63.867188 66.972656 C 63.867188 48.140625 63.867188 29.308594 63.867188 10.480469 C 62.300781 10.480469 60.738281 10.480469 59.171875 10.480469 C 59.171875 8.078125 59.171875 5.675781 59.171875 3.277344 C 59.136719 1.625 57.703125 0.109375 56.023438 0.0351562 C 40.78125 -0.015625 25.539062 0.03125 10.300781 0 Z M 10.300781 0 "/>
<path style=" stroke:none;fill-rule:nonzero;fill:rgb(100%,100%,100%);fill-opacity:1;" d="M 21.128906 10.519531 C 23.890625 10.519531 26.65625 10.519531 29.417969 10.519531 C 31.195312 17.492188 32.964844 24.46875 34.730469 31.449219 C 35.339844 29.359375 35.863281 27.246094 36.4375 25.148438 C 37.742188 20.273438 39.042969 15.398438 40.351562 10.523438 L 48.351562 10.523438 C 48.351562 19.21875 48.351562 27.914062 48.351562 36.609375 C 46.265625 36.625 44.183594 36.609375 42.097656 36.609375 C 42.089844 31.132812 42.089844 25.65625 42.097656 20.179688 C 42.097656 20.109375 42.070312 19.976562 42.0625 19.90625 C 40.589844 25.480469 39.15625 31.050781 37.683594 36.625 C 35.617188 36.625 33.546875 36.625 31.480469 36.625 C 30.261719 32.082031 29.046875 27.535156 27.835938 22.992188 C 27.480469 21.738281 27.199219 20.464844 26.796875 19.226562 C 26.765625 25.023438 26.796875 30.824219 26.777344 36.625 C 24.898438 36.625 23.015625 36.625 21.132812 36.625 C 21.140625 27.921875 21.140625 19.21875 21.128906 10.519531 Z M 21.128906 10.519531 "/>
<path style=" stroke:none;fill-rule:nonzero;fill:rgb(100%,100%,100%);fill-opacity:1;" d="M 22.015625 61.59375 C 22.984375 58.300781 23.929688 55.003906 24.878906 51.707031 C 25.992188 51.707031 27.101562 51.707031 28.210938 51.707031 C 29.222656 55.007812 30.230469 58.304688 31.234375 61.601562 C 30.382812 61.601562 29.53125 61.601562 28.683594 61.601562 C 28.472656 60.878906 28.277344 60.15625 28.0625 59.441406 C 27.066406 59.441406 26.074219 59.441406 25.082031 59.441406 C 24.871094 60.15625 24.703125 60.886719 24.511719 61.601562 C 23.679688 61.605469 22.847656 61.601562 22.015625 61.59375 Z M 26.550781 53.34375 C 26.1875 54.757812 25.871094 56.179688 25.523438 57.59375 C 26.203125 57.59375 26.890625 57.59375 27.570312 57.59375 C 27.261719 56.175781 26.871094 54.769531 26.550781 53.347656 Z M 26.550781 53.34375 "/>
<path style=" stroke:none;fill-rule:nonzero;fill:rgb(100%,100%,100%);fill-opacity:1;" d="M 30.296875 51.707031 C 31.175781 51.707031 32.050781 51.707031 32.929688 51.707031 C 33.542969 53.09375 34.148438 54.480469 34.757812 55.867188 C 35.378906 54.484375 35.964844 53.09375 36.578125 51.707031 C 37.421875 51.707031 38.269531 51.707031 39.113281 51.707031 C 38.097656 53.613281 37.097656 55.527344 36.082031 57.433594 C 36.007812 57.542969 35.964844 57.671875 35.964844 57.804688 C 35.964844 59.070312 35.964844 60.335938 35.964844 61.589844 C 35.144531 61.589844 34.300781 61.589844 33.464844 61.589844 C 33.464844 60.324219 33.464844 59.058594 33.464844 57.804688 C 33.441406 57.617188 33.371094 57.4375 33.261719 57.28125 C 32.265625 55.425781 31.28125 53.566406 30.296875 51.707031 Z M 30.296875 51.707031 "/>
<path style=" stroke:none;fill-rule:nonzero;fill:rgb(100%,100%,100%);fill-opacity:1;" d="M 38.242188 61.582031 C 39.210938 58.289062 40.160156 54.988281 41.113281 51.691406 C 42.226562 51.691406 43.335938 51.691406 44.449219 51.691406 C 45.441406 54.992188 46.464844 58.285156 47.457031 61.585938 C 46.609375 61.585938 45.761719 61.585938 44.910156 61.585938 C 44.710938 60.863281 44.503906 60.140625 44.292969 59.425781 C 43.292969 59.425781 42.292969 59.425781 41.285156 59.425781 C 41.117188 60.144531 40.914062 60.859375 40.738281 61.585938 C 39.90625 61.601562 39.074219 61.605469 38.242188 61.582031 Z M 41.746094 57.582031 C 42.429688 57.582031 43.113281 57.582031 43.800781 57.582031 C 43.480469 56.167969 43.105469 54.757812 42.777344 53.339844 C 42.402344 54.765625 42.109375 56.175781 41.746094 57.59375 Z M 41.746094 57.582031 "/>
<path style=" stroke:none;fill-rule:nonzero;fill:rgb(22.352941%,64.705882%,80%);fill-opacity:1;" d="M 10.300781 0 C 25.539062 0.0351562 40.78125 0 56.023438 0.015625 C 57.707031 0.0898438 59.136719 1.601562 59.171875 3.257812 C 59.171875 5.660156 59.171875 8.0625 59.171875 10.460938 C 59.171875 22.660156 59.171875 34.859375 59.171875 47.058594 C 42.886719 47.082031 26.605469 47.082031 10.320312 47.058594 C 10.285156 31.390625 10.320312 15.703125 10.296875 0.0234375 Z M 21.128906 10.535156 C 21.128906 19.230469 21.128906 27.929688 21.128906 36.625 C 23.011719 36.640625 24.890625 36.625 26.773438 36.625 C 26.800781 30.828125 26.773438 25.027344 26.792969 19.230469 C 27.191406 20.46875 27.472656 21.742188 27.832031 22.992188 C 29.042969 27.539062 30.257812 32.082031 31.476562 36.625 C 33.542969 36.625 35.609375 36.625 37.679688 36.625 C 39.164062 31.058594 40.59375 25.480469 42.085938 19.917969 C 42.085938 19.988281 42.113281 20.121094 42.121094 20.1875 C 42.121094 25.667969 42.121094 31.144531 42.121094 36.621094 C 44.203125 36.621094 46.289062 36.621094 48.371094 36.621094 C 48.371094 27.925781 48.371094 19.230469 48.371094 10.535156 L 40.351562 10.535156 C 39.046875 15.40625 37.742188 20.28125 36.441406 25.15625 C 35.863281 27.257812 35.347656 29.371094 34.730469 31.460938 C 32.972656 24.480469 31.203125 17.503906 29.421875 10.53125 C 26.65625 10.519531 23.894531 10.519531 21.128906 10.519531 Z M 21.128906 10.535156 "/>
<path style=" stroke:none;fill-rule:nonzero;fill:rgb(49.803922%,77.254902%,87.058824%);fill-opacity:1;" d="M 6.859375 2.054688 C 8.007812 1.386719 9.128906 0.660156 10.304688 0.03125 C 10.339844 15.703125 10.304688 31.390625 10.328125 47.070312 L 5.621094 49.878906 C 3.746094 50.980469 1.890625 52.121094 0.00390625 53.207031 C 0.00390625 37.652344 0.00390625 22.101562 0.00390625 6.546875 C 0.0234375 6.375 -0.0585938 6.113281 0.164062 6.039062 C 2.402344 4.707031 4.621094 3.375 6.859375 2.054688 Z M 6.859375 2.054688 "/>
<path style=" stroke:none;fill-rule:nonzero;fill:rgb(21.176471%,40.784314%,49.803922%);fill-opacity:1;" d="M 59.179688 10.460938 C 60.746094 10.460938 62.3125 10.460938 63.875 10.460938 C 63.875 29.292969 63.875 48.125 63.875 66.953125 C 46.242188 66.972656 28.609375 66.972656 10.976562 66.953125 C 10.140625 66.925781 9.300781 67.011719 8.46875 66.898438 C 6.867188 66.613281 5.679688 65.261719 5.625 63.65625 C 5.625 59.0625 5.625 54.46875 5.625 49.859375 L 10.332031 47.066406 C 26.617188 47.066406 42.902344 47.066406 59.183594 47.066406 C 59.191406 34.863281 59.191406 22.660156 59.179688 10.460938 Z M 22.015625 61.59375 C 22.847656 61.59375 23.679688 61.59375 24.515625 61.59375 C 24.707031 60.871094 24.871094 60.144531 25.082031 59.433594 C 26.074219 59.433594 27.070312 59.433594 28.0625 59.433594 C 28.277344 60.152344 28.476562 60.878906 28.683594 61.59375 C 29.535156 61.59375 30.386719 61.59375 31.238281 61.59375 C 30.226562 58.296875 29.21875 55 28.214844 51.699219 C 27.105469 51.699219 25.992188 51.699219 24.882812 51.699219 C 23.925781 55.003906 22.980469 58.300781 22.015625 61.59375 Z M 30.296875 51.707031 C 31.285156 53.566406 32.269531 55.425781 33.257812 57.28125 C 33.367188 57.4375 33.4375 57.617188 33.464844 57.804688 C 33.464844 59.070312 33.464844 60.335938 33.464844 61.589844 C 34.285156 61.589844 35.128906 61.589844 35.964844 61.589844 C 35.964844 60.324219 35.964844 59.058594 35.964844 57.804688 C 35.964844 57.671875 36.003906 57.542969 36.078125 57.433594 C 37.09375 55.527344 38.097656 53.613281 39.109375 51.707031 C 38.265625 51.707031 37.421875 51.707031 36.574219 51.707031 C 35.964844 53.09375 35.375 54.484375 34.757812 55.867188 C 34.148438 54.480469 33.542969 53.09375 32.925781 51.707031 C 32.050781 51.699219 31.175781 51.707031 30.296875 51.707031 Z M 38.242188 61.582031 C 39.066406 61.582031 39.90625 61.582031 40.738281 61.582031 C 40.914062 60.859375 41.117188 60.148438 41.285156 59.417969 C 42.285156 59.398438 43.289062 59.417969 44.292969 59.417969 C 44.503906 60.140625 44.710938 60.859375 44.910156 61.582031 C 45.761719 61.582031 46.609375 61.582031 47.457031 61.582031 C 46.46875 58.277344 45.441406 54.988281 44.449219 51.6875 C 43.335938 51.6875 42.226562 51.6875 41.113281 51.6875 C 40.144531 55 39.210938 58.300781 38.242188 61.582031 Z M 38.242188 61.582031 "/>
<path style=" stroke:none;fill-rule:nonzero;fill:rgb(21.176471%,40.784314%,49.803922%);fill-opacity:1;" d="M 26.550781 53.347656 C 26.871094 54.769531 27.261719 56.175781 27.570312 57.605469 C 26.886719 57.605469 26.203125 57.605469 25.523438 57.605469 C 25.871094 56.175781 26.195312 54.757812 26.550781 53.347656 Z M 26.550781 53.347656 "/>
<path style=" stroke:none;fill-rule:nonzero;fill:rgb(21.176471%,40.784314%,49.803922%);fill-opacity:1;" d="M 41.746094 57.59375 C 42.109375 56.1875 42.402344 54.765625 42.777344 53.363281 C 43.105469 54.777344 43.480469 56.183594 43.800781 57.605469 C 43.117188 57.589844 42.429688 57.601562 41.746094 57.59375 Z M 41.746094 57.59375 "/>
</g>
</svg>
