<?xml version="1.0" encoding="UTF-8"?>
<svg xmlns="http://www.w3.org/2000/svg" xmlns:xlink="http://www.w3.org/1999/xlink" width="64px" height="64px" viewBox="0 0 64 67" version="1.1">
<g id="surface1">
<path style=" stroke:none;fill-rule:nonzero;fill:rgb(100%,100%,100%);fill-opacity:1;" d="M 10.359375 0.00390625 L 10.359375 0.0507812 C 9.757812 0.355469 9.175781 0.691406 8.609375 1.058594 C 5.753906 2.742188 2.898438 4.46875 0.0429688 6.136719 C 0.0429688 21.84375 0.0429688 37.550781 0.0429688 53.257812 C 1.921875 52.164062 3.78125 51.039062 5.652344 49.929688 C 5.652344 54.511719 5.652344 59.09375 5.652344 63.675781 C 5.710938 65.535156 7.253906 67.007812 9.136719 67 C 27.398438 67 45.664062 67 63.925781 67 C 63.925781 48.164062 63.925781 29.320312 63.925781 10.480469 L 59.230469 10.480469 C 59.230469 8.054688 59.230469 5.632812 59.230469 3.210938 C 59.125 1.4375 57.652344 0.046875 55.855469 0.0195312 C 40.691406 0 25.527344 -0.00390625 10.359375 0.00390625 Z M 10.359375 0.00390625 "/>
<path style=" stroke:none;fill-rule:nonzero;fill:rgb(100%,100%,100%);fill-opacity:1;" d="M 27.714844 11.792969 C 30.207031 10.089844 33.398438 9.71875 36.347656 10.082031 C 38.863281 10.410156 41.5 11.492188 42.847656 13.753906 C 43.675781 15.070312 43.625 16.675781 43.566406 18.164062 C 43.441406 19.277344 42.882812 20.296875 42.015625 21.011719 C 41.128906 21.761719 40.082031 22.304688 38.949219 22.589844 C 41.019531 23.019531 43.152344 24.089844 44.117188 26.042969 C 44.777344 27.296875 44.558594 28.746094 44.59375 30.105469 C 44.59375 32.117188 43.410156 33.964844 41.808594 35.132812 C 39.695312 36.675781 36.996094 37.265625 34.402344 37.234375 C 32.046875 37.234375 29.601562 36.804688 27.605469 35.503906 C 25.582031 34.160156 24.3125 31.960938 24.175781 29.554688 C 26.214844 29.554688 28.253906 29.554688 30.296875 29.554688 C 30.414062 30.730469 31.15625 31.753906 32.242188 32.246094 C 33.460938 32.726562 34.8125 32.753906 36.050781 32.328125 C 37.113281 31.957031 37.867188 31.019531 37.996094 29.910156 C 38.148438 28.589844 38.1875 26.949219 36.988281 26.0625 C 35.359375 24.839844 33.210938 25.121094 31.277344 25.085938 C 31.175781 23.640625 31.234375 22.191406 31.222656 20.742188 C 32.769531 20.652344 34.453125 20.972656 35.863281 20.167969 C 36.648438 19.738281 37.121094 18.910156 37.089844 18.023438 C 37.089844 17.171875 37.175781 16.222656 36.613281 15.503906 C 35.980469 14.6875 34.867188 14.464844 33.878906 14.503906 C 32.804688 14.457031 31.777344 14.949219 31.148438 15.8125 C 30.835938 16.335938 30.640625 16.914062 30.570312 17.511719 C 28.519531 17.511719 26.46875 17.511719 24.417969 17.511719 C 24.554688 15.203125 25.773438 13.085938 27.714844 11.792969 Z M 27.714844 11.792969 "/>
<path style=" stroke:none;fill-rule:nonzero;fill:rgb(100%,100%,100%);fill-opacity:1;" d="M 19.976562 51.742188 C 21.019531 51.773438 22.089844 51.671875 23.117188 51.789062 C 23.8125 54.40625 24.449219 57.039062 25.136719 59.660156 C 25.863281 57.027344 26.5625 54.378906 27.265625 51.742188 C 28.277344 51.742188 29.292969 51.742188 30.304688 51.742188 C 30.304688 55.035156 30.304688 58.328125 30.304688 61.617188 L 27.925781 61.617188 C 27.925781 59.507812 27.964844 57.382812 27.890625 55.289062 C 27.367188 57.40625 26.800781 59.523438 26.234375 61.625 C 25.460938 61.625 24.6875 61.625 23.914062 61.625 C 23.285156 59.449219 22.757812 57.242188 22.132812 55.042969 C 22.105469 57.226562 22.132812 59.414062 22.132812 61.601562 L 19.992188 61.601562 C 19.980469 58.324219 19.976562 55.039062 19.976562 51.742188 Z M 19.976562 51.742188 "/>
<path style=" stroke:none;fill-rule:nonzero;fill:rgb(100%,100%,100%);fill-opacity:1;" d="M 34.457031 51.742188 L 37.765625 51.742188 C 38.796875 55.03125 39.773438 58.324219 40.796875 61.617188 L 38.242188 61.617188 C 38.046875 60.890625 37.839844 60.175781 37.632812 59.457031 C 36.625 59.457031 35.628906 59.457031 34.621094 59.457031 C 34.441406 60.175781 34.25 60.867188 34.074219 61.605469 C 33.246094 61.605469 32.417969 61.605469 31.589844 61.605469 C 32.535156 58.324219 33.492188 55.035156 34.457031 51.742188 Z M 35.097656 57.648438 C 35.78125 57.617188 36.464844 57.617188 37.148438 57.648438 C 36.808594 56.234375 36.464844 54.796875 36.097656 53.378906 C 35.769531 54.804688 35.40625 56.222656 35.097656 57.652344 Z M 35.097656 57.648438 "/>
<path style=" stroke:none;fill-rule:nonzero;fill:rgb(100%,100%,100%);fill-opacity:1;" d="M 41.835938 51.746094 C 42.734375 51.746094 43.628906 51.746094 44.523438 51.746094 C 45.136719 52.78125 45.65625 53.867188 46.25 54.914062 C 46.851562 53.863281 47.382812 52.769531 48.027344 51.734375 C 48.886719 51.765625 49.753906 51.734375 50.617188 51.734375 C 49.707031 53.195312 48.761719 54.632812 47.847656 56.085938 C 47.730469 56.253906 47.949219 56.429688 48.007812 56.585938 C 48.988281 58.257812 49.964844 59.9375 50.933594 61.621094 C 49.984375 61.621094 49.066406 61.621094 48.132812 61.621094 C 47.464844 60.398438 46.894531 59.117188 46.171875 57.929688 C 45.546875 59.15625 44.871094 60.359375 44.265625 61.601562 C 43.34375 61.640625 42.414062 61.601562 41.492188 61.601562 C 42.476562 59.988281 43.441406 58.367188 44.429688 56.757812 C 44.503906 56.59375 44.710938 56.402344 44.546875 56.21875 C 43.65625 54.742188 42.730469 53.25 41.835938 51.746094 Z M 41.835938 51.746094 "/>
<path style=" stroke:none;fill-rule:nonzero;fill:rgb(22.352941%,64.705882%,80%);fill-opacity:1;" d="M 10.359375 0.00390625 C 25.527344 0.00390625 40.691406 0.00390625 55.855469 0.00390625 C 57.652344 0.0351562 59.125 1.425781 59.230469 3.199219 C 59.230469 5.621094 59.230469 8.046875 59.230469 10.46875 C 59.230469 20.15625 59.230469 29.847656 59.230469 39.542969 C 59.207031 42.0625 59.28125 44.589844 59.195312 47.109375 C 42.917969 47.109375 26.644531 47.109375 10.371094 47.109375 C 10.34375 31.417969 10.371094 15.730469 10.371094 0.0390625 Z M 27.714844 11.792969 C 25.78125 13.089844 24.566406 15.203125 24.4375 17.511719 C 26.488281 17.511719 28.539062 17.511719 30.589844 17.511719 C 30.667969 16.914062 30.867188 16.339844 31.179688 15.824219 C 31.804688 14.957031 32.828125 14.460938 33.902344 14.503906 C 34.890625 14.464844 36.003906 14.6875 36.636719 15.503906 C 37.1875 16.222656 37.113281 17.171875 37.113281 18.023438 C 37.144531 18.910156 36.671875 19.738281 35.890625 20.167969 C 34.460938 20.972656 32.796875 20.640625 31.246094 20.742188 C 31.246094 22.191406 31.199219 23.640625 31.300781 25.085938 C 33.203125 25.132812 35.367188 24.839844 37.011719 26.0625 C 38.210938 26.949219 38.171875 28.589844 38.019531 29.910156 C 37.890625 31.019531 37.136719 31.957031 36.074219 32.328125 C 34.835938 32.753906 33.484375 32.726562 32.265625 32.246094 C 31.179688 31.753906 30.4375 30.730469 30.320312 29.554688 C 28.277344 29.554688 26.242188 29.554688 24.199219 29.554688 C 24.335938 31.960938 25.605469 34.160156 27.628906 35.503906 C 29.625 36.804688 32.070312 37.222656 34.425781 37.234375 C 37.023438 37.265625 39.722656 36.675781 41.835938 35.132812 C 43.4375 33.960938 44.628906 32.117188 44.617188 30.105469 C 44.585938 28.746094 44.808594 27.285156 44.144531 26.042969 C 43.191406 24.089844 41.042969 23.019531 38.972656 22.589844 C 40.105469 22.304688 41.152344 21.761719 42.039062 21.011719 C 42.90625 20.296875 43.464844 19.277344 43.589844 18.164062 C 43.648438 16.675781 43.699219 15.074219 42.871094 13.753906 C 41.53125 11.515625 38.886719 10.410156 36.371094 10.082031 C 33.429688 9.71875 30.230469 10.085938 27.714844 11.792969 Z M 27.714844 11.792969 "/>
<path style=" stroke:none;fill-rule:nonzero;fill:rgb(49.803922%,77.254902%,87.058824%);fill-opacity:1;" d="M 8.609375 1.054688 C 9.175781 0.6875 9.757812 0.351562 10.359375 0.046875 C 10.359375 15.738281 10.359375 31.425781 10.359375 47.117188 C 8.78125 48.058594 7.214844 49 5.648438 49.941406 C 3.777344 51.050781 1.917969 52.179688 0.0351562 53.269531 C 0.0351562 37.5625 0.0351562 21.855469 0.0351562 6.144531 C 2.917969 4.460938 5.75 2.738281 8.609375 1.054688 Z M 8.609375 1.054688 "/>
<path style=" stroke:none;fill-rule:nonzero;fill:rgb(21.176471%,40.784314%,49.803922%);fill-opacity:1;" d="M 59.242188 10.457031 L 63.933594 10.457031 C 63.96875 29.296875 63.933594 48.136719 63.933594 66.976562 C 45.671875 66.976562 27.410156 66.976562 9.148438 66.976562 C 7.265625 66.984375 5.71875 65.511719 5.664062 63.652344 C 5.664062 59.070312 5.664062 54.488281 5.664062 49.90625 C 7.230469 48.964844 8.792969 48.027344 10.375 47.085938 C 26.648438 47.054688 42.921875 47.054688 59.199219 47.085938 C 59.285156 44.566406 59.199219 42.039062 59.238281 39.519531 C 59.238281 29.84375 59.242188 20.15625 59.242188 10.457031 Z M 19.976562 51.730469 C 19.976562 55.027344 19.976562 58.320312 19.976562 61.605469 L 22.117188 61.605469 C 22.117188 59.417969 22.117188 57.234375 22.117188 55.046875 C 22.742188 57.226562 23.269531 59.433594 23.898438 61.628906 C 24.671875 61.628906 25.445312 61.628906 26.222656 61.628906 C 26.789062 59.523438 27.355469 57.398438 27.878906 55.296875 C 27.949219 57.402344 27.878906 59.527344 27.910156 61.621094 L 30.292969 61.621094 C 30.292969 58.324219 30.292969 55.03125 30.292969 51.746094 C 29.277344 51.746094 28.261719 51.746094 27.25 51.746094 C 26.539062 54.382812 25.84375 57.03125 25.121094 59.664062 C 24.4375 57.046875 23.804688 54.410156 23.101562 51.792969 C 22.089844 51.675781 21.023438 51.773438 19.976562 51.742188 Z M 34.453125 51.730469 C 33.484375 55.023438 32.53125 58.316406 31.59375 61.605469 C 32.421875 61.605469 33.25 61.605469 34.082031 61.605469 C 34.257812 60.886719 34.445312 60.195312 34.628906 59.457031 C 35.632812 59.457031 36.632812 59.457031 37.636719 59.457031 C 37.84375 60.175781 38.050781 60.890625 38.246094 61.617188 L 40.800781 61.617188 C 39.777344 58.324219 38.796875 55.03125 37.769531 51.742188 Z M 41.835938 51.730469 C 42.722656 53.242188 43.652344 54.726562 44.550781 56.226562 C 44.714844 56.410156 44.507812 56.601562 44.433594 56.765625 C 43.441406 58.375 42.480469 60.003906 41.496094 61.609375 C 42.417969 61.609375 43.347656 61.632812 44.269531 61.609375 C 44.875 60.371094 45.546875 59.164062 46.175781 57.9375 C 46.902344 59.128906 47.46875 60.40625 48.136719 61.628906 C 49.089844 61.628906 50.007812 61.628906 50.941406 61.628906 C 49.96875 59.949219 48.992188 58.269531 48.011719 56.59375 C 47.957031 56.4375 47.738281 56.265625 47.851562 56.09375 C 48.765625 54.636719 49.707031 53.203125 50.621094 51.746094 C 49.753906 51.746094 48.894531 51.746094 48.03125 51.746094 C 47.390625 52.773438 46.855469 53.867188 46.257812 54.925781 C 45.660156 53.875 45.140625 52.789062 44.527344 51.753906 C 43.628906 51.746094 42.734375 51.734375 41.835938 51.746094 Z M 41.835938 51.730469 "/>
<path style=" stroke:none;fill-rule:nonzero;fill:rgb(21.176471%,40.784314%,49.803922%);fill-opacity:1;" d="M 35.097656 57.652344 C 35.40625 56.242188 35.773438 54.832031 36.097656 53.382812 C 36.464844 54.792969 36.808594 56.203125 37.148438 57.652344 C 36.464844 57.625 35.78125 57.625 35.097656 57.652344 Z M 35.097656 57.652344 "/>
</g>
</svg>
