<?xml version="1.0" encoding="UTF-8"?>
<svg xmlns="http://www.w3.org/2000/svg" xmlns:xlink="http://www.w3.org/1999/xlink" width="64px" height="64px" viewBox="0 0 64 52" version="1.1">
<g id="surface1">
<path style=" stroke:none;fill-rule:nonzero;fill:rgb(100%,100%,100%);fill-opacity:1;" d="M 24.148438 29.132812 C 24.375 25.101562 26.359375 21.542969 29.363281 19.023438 C 32.304688 16.550781 36.253906 15.039062 40.589844 15.039062 C 44.902344 15.039062 48.851562 16.550781 51.792969 19.023438 C 54.796875 21.542969 56.769531 25.101562 57.007812 29.132812 C 57.234375 33.269531 55.558594 37.128906 52.628906 39.988281 C 49.625 42.886719 45.375 44.722656 40.589844 44.722656 C 35.800781 44.722656 31.53125 42.902344 28.546875 39.988281 C 25.609375 37.128906 23.933594 33.292969 24.171875 29.15625 Z M 24.148438 29.132812 "/>
<path style=" stroke:none;fill-rule:nonzero;fill:rgb(14.901961%,34.117647%,52.941176%);fill-opacity:1;" d="M 33.140625 28.640625 C 33.257812 26.570312 34.277344 24.738281 35.820312 23.445312 C 37.332031 22.175781 39.359375 21.394531 41.589844 21.394531 C 43.804688 21.394531 45.835938 22.171875 47.347656 23.445312 C 48.890625 24.738281 49.90625 26.570312 50.027344 28.640625 C 50.144531 30.765625 49.28125 32.75 47.777344 34.21875 C 46.230469 35.707031 44.046875 36.652344 41.589844 36.652344 C 39.128906 36.652344 36.933594 35.714844 35.402344 34.21875 C 33.890625 32.75 33.03125 30.777344 33.152344 28.652344 Z M 33.140625 28.640625 "/>
<path style=" stroke:none;fill-rule:nonzero;fill:rgb(91.764706%,46.27451%,0%);fill-opacity:1;" d="M 19.90625 33.023438 C 19.921875 33.835938 20.179688 35.414062 20.570312 36.640625 C 21.390625 39.25 22.789062 41.660156 24.71875 43.773438 C 26.703125 45.957031 29.152344 47.707031 31.976562 48.957031 C 34.941406 50.261719 38.164062 50.929688 41.503906 50.929688 C 44.847656 50.925781 48.066406 50.246094 51.03125 48.925781 C 53.855469 47.664062 56.304688 45.910156 58.289062 43.71875 C 60.230469 41.582031 61.621094 39.171875 62.4375 36.5625 C 62.851562 35.25 63.113281 33.910156 63.214844 32.574219 C 63.320312 31.257812 63.277344 29.933594 63.085938 28.605469 C 62.71875 26.03125 61.820312 23.609375 60.441406 21.417969 C 59.183594 19.390625 57.550781 17.625 55.609375 16.136719 L 55.613281 16.132812 L 36.09375 1.226562 C 36.074219 1.214844 36.0625 1.199219 36.042969 1.1875 C 34.761719 0.210938 32.601562 0.214844 31.199219 1.195312 C 29.777344 2.183594 29.613281 3.824219 30.882812 4.855469 L 30.875 4.859375 L 39.027344 11.445312 L 14.210938 11.472656 L 14.179688 11.472656 C 12.125 11.476562 10.152344 12.808594 9.765625 14.507812 C 9.363281 16.230469 10.757812 17.664062 12.898438 17.664062 L 12.894531 17.671875 L 25.46875 17.648438 L 2.96875 34.742188 C 2.941406 34.765625 2.910156 34.785156 2.882812 34.808594 C 0.765625 36.417969 0.0820312 39.105469 1.417969 40.792969 C 2.773438 42.511719 5.652344 42.523438 7.789062 40.800781 L 20.03125 30.828125 C 20.03125 30.828125 19.855469 32.175781 19.867188 32.976562 Z M 51.449219 37.527344 C 48.921875 40.082031 45.382812 41.539062 41.566406 41.539062 C 37.738281 41.546875 34.199219 40.113281 31.675781 37.558594 C 30.4375 36.3125 29.535156 34.886719 28.972656 33.363281 C 28.421875 31.863281 28.210938 30.273438 28.351562 28.671875 C 28.484375 27.105469 28.957031 25.605469 29.707031 24.257812 C 30.445312 22.929688 31.460938 21.726562 32.707031 20.707031 C 35.167969 18.722656 38.289062 17.636719 41.554688 17.636719 C 44.828125 17.632812 47.949219 18.699219 50.410156 20.683594 C 51.65625 21.695312 52.671875 22.898438 53.410156 24.222656 C 54.164062 25.570312 54.632812 27.0625 54.765625 28.640625 C 54.90625 30.238281 54.691406 31.828125 54.144531 33.332031 C 53.582031 34.863281 52.675781 36.289062 51.441406 37.539062 Z M 51.449219 37.527344 "/>
</g>
</svg>
