<?xml version="1.0" encoding="UTF-8"?>
<svg xmlns="http://www.w3.org/2000/svg" xmlns:xlink="http://www.w3.org/1999/xlink" width="64px" height="64px" viewBox="0 0 64 64" version="1.1">
<defs>
<clipPath id="clip2">
  <path d="M 7 8 L 57 8 L 57 59 L 7 59 Z M 7 8 "/>
</clipPath>
<clipPath id="clip3">
  <path d="M 57 33.625 C 57 47.433594 45.808594 58.625 32 58.625 C 18.191406 58.625 7 47.433594 7 33.625 C 7 19.816406 18.191406 8.625 32 8.625 C 45.808594 8.625 57 19.816406 57 33.625 Z M 57 33.625 "/>
</clipPath>
<linearGradient id="linear0" gradientUnits="userSpaceOnUse" x1="112" y1="512" x2="711.8644" y2="512" gradientTransform="matrix(-0.0541266,-0.03125,0.03125,-0.0541266,43.712813,75.712812)">
<stop offset="0" style="stop-color:rgb(100%,100%,0%);stop-opacity:1;"/>
<stop offset="1" style="stop-color:rgb(100%,100%,0%);stop-opacity:0;"/>
</linearGradient>
<linearGradient id="linear1" gradientUnits="userSpaceOnUse" x1="112" y1="512" x2="711.8644" y2="512" gradientTransform="matrix(0.0541266,-0.03125,0.03125,0.0541266,-11.712813,20.287187)">
<stop offset="0" style="stop-color:rgb(0%,100%,100%);stop-opacity:1;"/>
<stop offset="1" style="stop-color:rgb(0%,100%,100%);stop-opacity:0;"/>
</linearGradient>
<linearGradient id="linear2" gradientUnits="userSpaceOnUse" x1="112" y1="512" x2="711.8644" y2="512" gradientTransform="matrix(0.000000000000000004,0.0625,-0.0625,0.000000000000000004,64,-0.000000000000003919)">
<stop offset="0" style="stop-color:rgb(100%,0%,100%);stop-opacity:1;"/>
<stop offset="1" style="stop-color:rgb(100%,0%,100%);stop-opacity:0;"/>
</linearGradient>
<linearGradient id="linear3" gradientUnits="userSpaceOnUse" x1="1142.588" y1="62.71332" x2="1280.895" y2="200.874" gradientTransform="matrix(0.217778,-0.0224621,0.0224621,0.217778,-247.656272,19.552038)">
<stop offset="0" style="stop-color:rgb(20.392157%,20.392157%,20.392157%);stop-opacity:1;"/>
<stop offset="1" style="stop-color:rgb(30.196078%,30.196078%,30.196078%);stop-opacity:1;"/>
</linearGradient>
<linearGradient id="linear4" gradientUnits="userSpaceOnUse" x1="1327.594" y1="230.8623" x2="1324.91" y2="89.86234" gradientTransform="matrix(0.00243481,0.21892,0.21892,-0.00243481,-10.840563,-247.449222)">
<stop offset="0" style="stop-color:rgb(33.333333%,58.823529%,91.764706%);stop-opacity:1;"/>
<stop offset="1" style="stop-color:rgb(33.333333%,58.823529%,91.764706%);stop-opacity:0;"/>
</linearGradient>
<clipPath id="clip1">
  <rect x="0" y="0" width="64" height="64"/>
</clipPath>
<g id="surface5" clip-path="url(#clip1)">
<g clip-path="url(#clip2)" clip-rule="nonzero">
<g clip-path="url(#clip3)" clip-rule="nonzero">
<path style=" stroke:none;fill-rule:nonzero;fill:rgb(0%,0%,0%);fill-opacity:0.47451;" d="M 57.40625 33.25 C 57.40625 47.28125 46.03125 58.65625 32 58.65625 C 17.96875 58.65625 6.59375 47.28125 6.59375 33.25 C 6.59375 19.21875 17.96875 7.84375 32 7.84375 C 46.03125 7.84375 57.40625 19.21875 57.40625 33.25 Z M 57.40625 33.25 "/>
</g>
</g>
<path style=" stroke:none;fill-rule:nonzero;fill:rgb(100%,100%,100%);fill-opacity:1;" d="M 57 32 C 57 45.808594 45.808594 57 32 57 C 18.191406 57 7 45.808594 7 32 C 7 18.191406 18.191406 7 32 7 C 45.808594 7 57 18.191406 57 32 Z M 57 32 "/>
<path style=" stroke:none;fill-rule:nonzero;fill:url(#linear0);" d="M 10.347656 19.5 C 17.253906 7.542969 32.542969 3.445312 44.5 10.347656 C 56.457031 17.253906 60.554688 32.542969 53.652344 44.5 C 46.746094 56.457031 31.457031 60.554688 19.5 53.652344 C 7.542969 46.746094 3.445312 31.457031 10.347656 19.5 Z M 10.347656 19.5 "/>
<path style=" stroke:none;fill-rule:nonzero;fill:url(#linear1);" d="M 53.652344 19.5 C 60.554688 31.457031 56.457031 46.746094 44.5 53.652344 C 32.542969 60.554688 17.253906 56.457031 10.347656 44.5 C 3.445312 32.542969 7.542969 17.253906 19.5 10.347656 C 31.457031 3.445312 46.746094 7.542969 53.652344 19.5 Z M 53.652344 19.5 "/>
<path style=" stroke:none;fill-rule:nonzero;fill:url(#linear2);" d="M 32 57 C 18.191406 57 7 45.808594 7 32 C 7 18.191406 18.191406 7 32 7 C 45.808594 7 57 18.191406 57 32 C 57 45.808594 45.808594 57 32 57 Z M 32 57 "/>
<path style=" stroke:none;fill-rule:nonzero;fill:rgb(0%,0%,0%);fill-opacity:0.47451;" d="M 14.046875 14.640625 C 12.601562 16.132812 11.351562 17.796875 10.316406 19.59375 C 13.972656 23.171875 17.910156 26.96875 19.515625 28.699219 C 22.230469 31.625 27.890625 35.898438 32.019531 35.40625 C 33.648438 36.554688 37.34375 39.121094 38.578125 39.730469 C 38.554688 40.320312 38.671875 40.921875 38.882812 41.515625 C 40.042969 44.753906 44.367188 46.859375 41.851562 50.3125 C 46.808594 47.308594 48.128906 42.292969 46.027344 38.714844 C 44.714844 36.484375 42.804688 35.75 41.214844 36.285156 C 40.265625 35.207031 36.480469 32.066406 35.085938 30.917969 C 34.199219 26.921875 28.808594 22.800781 25.375 21.011719 C 23.277344 19.917969 18.476562 17.21875 14.046875 14.640625 Z M 14.046875 14.640625 "/>
<path style=" stroke:none;fill-rule:nonzero;fill:url(#linear3);" d="M 35.132812 33.945312 C 31.125 37.683594 23.417969 31.753906 20.167969 28.03125 C 16.820312 24.199219 4.328125 11.285156 3.417969 10.445312 C 2.503906 9.609375 1.777344 8.574219 2.582031 7.542969 C 3.421875 6.542969 4.585938 7.039062 5.59375 7.761719 C 6.601562 8.480469 21.820312 18.039062 26.257812 20.523438 C 30.570312 22.9375 37.960938 29.253906 35.132812 33.945312 Z M 35.132812 33.945312 "/>
<path style=" stroke:none;fill-rule:nonzero;fill:url(#linear4);" d="M 41.558594 37.632812 C 25.925781 51.578125 13.136719 38.214844 11.15625 33.582031 C 12.328125 41.621094 17.742188 48.8125 25.925781 51.578125 C 32.101562 53.667969 41.960938 53.621094 46.382812 45.65625 Z M 41.558594 37.632812 "/>
<path style=" stroke:none;fill-rule:nonzero;fill:rgb(74.901961%,74.901961%,74.901961%);fill-opacity:1;" d="M 41.492188 38.945312 C 40.214844 39.53125 40.355469 39.953125 39.21875 39.769531 C 38.4375 39.644531 31.664062 34.507812 31.664062 34.507812 C 31.320312 33.683594 31.730469 32.550781 32.503906 31.65625 C 33.222656 30.714844 34.246094 30.078125 35.125 30.242188 C 35.125 30.242188 41.546875 35.8125 41.832031 36.550781 C 42.242188 37.625 41.800781 37.574219 41.492188 38.945312 Z M 41.492188 38.945312 "/>
<path style=" stroke:none;fill-rule:nonzero;fill:rgb(15.686275%,15.686275%,15.686275%);fill-opacity:1;" d="M 41.84375 50.304688 C 46.890625 47.453125 48.359375 42.480469 46.367188 38.839844 C 44.816406 36.011719 42.273438 35.476562 40.519531 36.84375 C 38.777344 38.203125 38.625 39.816406 39.144531 41.421875 C 40.203125 44.695312 44.464844 46.929688 41.84375 50.304688 Z M 41.84375 50.304688 "/>
</g>
</defs>
<g id="surface1">
<use xlink:href="#surface5"/>
</g>
</svg>
