<svg version="1.1" xmlns="http://www.w3.org/2000/svg" viewBox="0 0 220 241.62109375" width="220" height="241.62109375" filter="invert(93%) hue-rotate(180deg)" class="excalidraw-svg">
  <!-- svg-source:excalidraw -->
  
  <defs>
    <style class="style-fonts">
      @font-face {
        font-family: "Virgil";
        src: url("https://excalidraw.com/Virgil.woff2");
      }
      @font-face {
        font-family: "Cascadia";
        src: url("https://excalidraw.com/Cascadia.woff2");
      }
      @font-face {
        font-family: "Assistant";
        src: url("https://excalidraw.com/Assistant-Regular.woff2");
      }
    </style>
    
  </defs>
  <rect x="0" y="0" width="220" height="241.62109375" fill="#f8f9fa"/><g transform="translate(132 91.62109375) rotate(0 -22 63.5)" stroke="none"><path fill="#1e1e1e" d="M -1.39,2.79 Q -1.39,2.79 -6.53,0.14 -11.67,-2.49 -18.48,-4.40 -25.29,-6.31 -32.72,-7.43 -40.15,-8.55 -49.77,-8.46 -59.39,-8.38 -68.11,-6.12 -76.82,-3.85 -85.12,2.64 -93.41,9.15 -99.80,16.68 -106.18,24.21 -109.91,34.87 -113.64,45.53 -114.97,55.97 -116.31,66.41 -114.34,75.41 -112.38,84.42 -106.54,93.18 -100.70,101.95 -93.71,109.10 -86.73,116.25 -75.41,121.71 -64.09,127.18 -52.77,130.09 -41.44,133.01 -31.52,134.25 -21.60,135.50 -12.71,134.60 -3.83,133.70 6.12,130.50 16.08,127.30 24.82,122.85 33.56,118.39 41.96,110.62 50.37,102.85 55.91,95.33 61.45,87.82 65.47,79.58 69.50,71.34 71.17,64.56 72.84,57.78 72.98,51.09 73.13,44.41 70.15,37.92 67.17,31.44 61.46,24.75 55.74,18.05 48.29,12.71 40.84,7.36 32.11,4.00 23.37,0.64 18.22,-0.81 13.07,-2.26 6.36,-3.44 -0.34,-4.62 -4.61,-5.12 -8.88,-5.63 -12.11,-6.20 -15.34,-6.77 -15.79,-6.96 -16.23,-7.15 -16.60,-7.46 -16.96,-7.78 -17.20,-8.20 -17.44,-8.62 -17.54,-9.09 -17.63,-9.56 -17.57,-10.04 -17.52,-10.52 -17.31,-10.96 -17.10,-11.39 -16.76,-11.74 -16.42,-12.08 -15.99,-12.30 -15.56,-12.52 -15.08,-12.59 -14.61,-12.66 -14.13,-12.57 -13.66,-12.49 -13.23,-12.25 -12.81,-12.02 -12.48,-11.67 -12.16,-11.31 -11.96,-10.87 -11.77,-10.43 -11.72,-9.95 -11.68,-9.47 -11.79,-9.00 -11.90,-8.53 -12.16,-8.12 -12.41,-7.71 -12.79,-7.40 -13.16,-7.10 -13.61,-6.93 -14.06,-6.75 -14.54,-6.74 -15.03,-6.72 -15.49,-6.85 -15.95,-6.99 -16.35,-7.27 -16.74,-7.55 -17.03,-7.93 -17.31,-8.32 -17.46,-8.78 -17.61,-9.24 -17.60,-9.73 -17.59,-10.21 -17.43,-10.66 -17.27,-11.12 -16.97,-11.50 -16.67,-11.88 -16.27,-12.14 -15.86,-12.40 -15.40,-12.53 -14.93,-12.65 -14.45,-12.61 -13.97,-12.58 -13.97,-12.58 -13.97,-12.58 -11.11,-11.71 -8.26,-10.84 -3.84,-10.32 0.56,-9.79 7.53,-8.55 14.50,-7.31 19.89,-5.78 25.28,-4.25 34.58,-0.58 43.88,3.08 51.80,8.86 59.73,14.64 65.84,21.95 71.95,29.27 75.14,36.80 78.34,44.33 78.14,51.68 77.94,59.03 76.08,66.33 74.22,73.63 69.95,82.28 65.68,90.93 59.80,98.82 53.93,106.71 44.96,114.87 35.98,123.04 26.83,127.68 17.68,132.31 7.19,135.62 -3.29,138.93 -12.76,139.83 -22.23,140.72 -32.49,139.41 -42.76,138.10 -54.58,135.01 -66.39,131.92 -78.41,125.95 -90.43,119.99 -97.76,112.43 -105.10,104.86 -111.31,95.25 -117.51,85.63 -119.54,75.73 -121.57,65.83 -120.12,54.80 -118.67,43.76 -114.50,32.31 -110.32,20.85 -103.53,12.87 -96.73,4.89 -87.54,-2.08 -78.34,-9.06 -68.91,-11.48 -59.48,-13.90 -49.41,-14.01 -39.34,-14.13 -31.54,-13.00 -23.75,-11.88 -16.38,-9.86 -9.02,-7.85 -3.81,-5.32 1.39,-2.79 1.71,-2.58 2.02,-2.37 2.28,-2.10 2.53,-1.82 2.71,-1.49 2.89,-1.16 2.99,-0.80 3.09,-0.43 3.10,-0.06 3.10,0.31 3.02,0.68 2.94,1.05 2.77,1.38 2.60,1.72 2.36,2.01 2.11,2.29 1.81,2.51 1.50,2.73 1.15,2.87 0.80,3.01 0.43,3.07 0.06,3.12 -0.31,3.08 -0.68,3.04 -1.04,2.92 -1.39,2.79 -1.39,2.79 L -1.39,2.79 Z"/></g><g transform="translate(76 165.62109375) rotate(0 23.5 13.5)" stroke="none"><path fill="#1e1e1e" d="M 4.53,0 Q 4.53,0 4.47,3.44 4.41,6.89 4.89,10.00 5.37,13.11 6.58,15.44 7.78,17.77 10.64,20.03 13.50,22.29 17.82,22.62 22.14,22.95 24.85,22.53 27.57,22.12 30.24,21.19 32.92,20.27 34.80,18.96 36.69,17.64 37.68,15.63 38.66,13.61 39.79,11.01 40.93,8.42 41.29,5.97 41.66,3.52 41.90,1.39 42.13,-0.73 42.36,-1.46 42.60,-2.20 43.06,-2.82 43.52,-3.44 44.15,-3.89 44.78,-4.33 45.52,-4.55 46.26,-4.77 47.04,-4.74 47.81,-4.71 48.53,-4.43 49.25,-4.16 49.85,-3.67 50.44,-3.17 50.85,-2.52 51.26,-1.86 51.44,-1.11 51.62,-0.36 51.54,0.40 51.47,1.17 51.16,1.88 50.84,2.58 50.32,3.15 49.80,3.72 49.12,4.09 48.44,4.46 47.68,4.60 46.92,4.74 46.16,4.62 45.40,4.51 44.71,4.16 44.02,3.81 43.48,3.25 42.94,2.70 42.60,2.00 42.27,1.31 42.18,0.54 42.08,-0.22 42.23,-0.97 42.39,-1.73 42.78,-2.40 43.17,-3.06 43.75,-3.57 44.33,-4.08 45.04,-4.38 45.76,-4.68 46.53,-4.73 47.30,-4.78 48.04,-4.59 48.79,-4.39 49.44,-3.97 50.08,-3.54 50.56,-2.94 51.04,-2.33 51.29,-1.60 51.55,-0.87 51.56,-0.10 51.57,0.66 51.57,0.66 51.58,0.66 51.16,2.92 50.74,5.18 50.03,8.62 49.33,12.06 47.93,15.20 46.54,18.34 44.28,21.71 42.02,25.08 38.98,26.97 35.94,28.87 32.44,30.07 28.94,31.27 25.24,31.79 21.54,32.32 17.57,32.11 13.60,31.90 10.67,30.81 7.75,29.72 5.96,28.08 4.17,26.44 2.13,24.02 0.08,21.60 -1.49,18.10 -3.07,14.60 -3.74,10.75 -4.41,6.90 -4.47,3.45 -4.53,0 -4.46,-0.54 -4.39,-1.08 -4.20,-1.59 -4.01,-2.10 -3.70,-2.55 -3.39,-3.00 -2.98,-3.36 -2.57,-3.72 -2.09,-3.98 -1.60,-4.23 -1.07,-4.36 -0.54,-4.49 0.00,-4.49 0.54,-4.49 1.07,-4.36 1.60,-4.23 2.09,-3.98 2.57,-3.72 2.98,-3.36 3.39,-3.00 3.70,-2.55 4.01,-2.10 4.20,-1.59 4.39,-1.08 4.46,-0.54 4.53,0.00 4.53,0.00 L 4.53,0 Z"/></g><g transform="translate(69 127.62109375) rotate(0 0 0.5)" stroke="none"><path fill="#1e1e1e" d="M 4.56,0.57 Q 4.56,0.57 4.45,1.30 4.33,2.03 3.98,2.68 3.63,3.34 3.10,3.84 2.56,4.35 1.89,4.66 1.22,4.97 0.48,5.05 -0.24,5.13 -0.96,4.97 -1.69,4.82 -2.32,4.43 -2.95,4.05 -3.43,3.49 -3.91,2.93 -4.18,2.24 -4.46,1.55 -4.50,0.81 -4.54,0.08 -4.34,-0.63 -4.14,-1.34 -3.73,-1.95 -3.31,-2.56 -2.72,-3.01 -2.13,-3.46 -1.43,-3.69 -0.73,-3.93 0.00,-3.93 0.74,-3.93 1.44,-3.69 2.14,-3.46 2.72,-3.01 3.31,-2.56 3.73,-1.95 4.14,-1.34 4.34,-0.63 4.54,0.08 4.50,0.82 4.46,1.55 4.18,2.24 3.91,2.93 3.43,3.49 2.95,4.05 2.32,4.43 1.69,4.82 0.96,4.97 0.24,5.13 -0.48,5.05 -1.22,4.97 -1.89,4.66 -2.56,4.35 -3.10,3.84 -3.63,3.33 -3.98,2.68 -4.33,2.03 -4.45,1.30 -4.56,0.57 -4.56,0.57 -4.56,0.57 -4.57,0.01 -4.57,-0.53 -4.44,-1.07 -4.31,-1.61 -4.05,-2.10 -3.80,-2.60 -3.43,-3.01 -3.06,-3.43 -2.61,-3.75 -2.15,-4.06 -1.63,-4.26 -1.12,-4.46 -0.57,-4.53 -0.01,-4.60 0.53,-4.54 1.08,-4.47 1.60,-4.28 2.12,-4.08 2.58,-3.77 3.03,-3.46 3.40,-3.04 3.77,-2.63 4.03,-2.14 4.29,-1.65 4.43,-1.11 4.56,-0.57 4.56,0.00 L 4.56,0.57 Z"/></g><g transform="translate(135 124.62109375) rotate(0 0.00004999999999988347 0.00005000000000165983)" stroke="none"><path fill="#1e1e1e" d="M 3.14,-3.14 Q 3.14,-3.14 3.55,-2.55 3.97,-1.97 4.18,-1.28 4.40,-0.59 4.38,0.11 4.36,0.83 4.11,1.51 3.86,2.18 3.41,2.74 2.96,3.30 2.36,3.69 1.75,4.07 1.05,4.25 0.36,4.42 -0.35,4.36 -1.07,4.30 -1.73,4.02 -2.39,3.74 -2.92,3.26 -3.46,2.78 -3.81,2.15 -4.16,1.53 -4.30,0.82 -4.43,0.11 -4.34,-0.59 -4.24,-1.30 -3.92,-1.94 -3.60,-2.59 -3.09,-3.09 -2.59,-3.60 -1.94,-3.92 -1.30,-4.24 -0.59,-4.34 0.12,-4.43 0.82,-4.30 1.53,-4.16 2.15,-3.81 2.78,-3.46 3.26,-2.92 3.74,-2.39 4.02,-1.73 4.31,-1.07 4.36,-0.35 4.42,0.36 4.25,1.05 4.07,1.75 3.69,2.36 3.30,2.96 2.74,3.41 2.18,3.86 1.51,4.11 0.83,4.36 0.11,4.38 -0.60,4.40 -1.28,4.18 -1.97,3.97 -2.55,3.55 -3.14,3.13 -3.14,3.14 -3.14,3.14 -3.47,2.71 -3.80,2.29 -4.02,1.80 -4.24,1.32 -4.33,0.79 -4.43,0.26 -4.40,-0.26 -4.36,-0.80 -4.20,-1.31 -4.04,-1.82 -3.77,-2.28 -3.49,-2.73 -3.11,-3.11 -2.73,-3.49 -2.28,-3.77 -1.82,-4.05 -1.31,-4.20 -0.80,-4.36 -0.26,-4.40 0.26,-4.43 0.79,-4.33 1.32,-4.24 1.80,-4.02 2.29,-3.80 2.71,-3.47 3.14,-3.14 3.14,-3.14 L 3.14,-3.14 Z"/></g><g transform="translate(53.5 69) rotate(0 64.75 -0.5)" stroke="none"><path fill="#1e1e1e" d="M 0,-3.64 Q 0,-3.64 4.16,-3.52 8.33,-3.41 14.52,-3.44 20.71,-3.48 29.26,-3.61 37.80,-3.73 49.50,-3.77 61.21,-3.80 76.82,-3.79 92.43,-3.79 100.49,-3.77 108.56,-3.76 114.29,-3.74 120.02,-3.73 123.90,-3.93 127.78,-4.14 128.28,-4.05 128.79,-3.97 129.23,-3.74 129.68,-3.50 130.03,-3.13 130.38,-2.76 130.60,-2.30 130.81,-1.84 130.87,-1.33 130.92,-0.83 130.81,-0.33 130.71,0.16 130.44,0.59 130.18,1.03 129.80,1.36 129.41,1.69 128.94,1.88 128.46,2.07 127.96,2.09 127.45,2.12 126.96,1.99 126.47,1.85 126.05,1.57 125.63,1.28 125.32,0.88 125.01,0.47 124.85,-0.00 124.68,-0.48 124.68,-0.99 124.68,-1.50 124.84,-1.98 125.01,-2.46 125.31,-2.87 125.62,-3.27 126.04,-3.56 126.46,-3.84 126.95,-3.98 127.44,-4.12 127.95,-4.09 128.46,-4.06 128.93,-3.88 129.40,-3.69 129.79,-3.36 130.18,-3.03 130.44,-2.59 130.70,-2.16 130.81,-1.66 130.92,-1.17 130.87,-0.66 130.81,-0.15 130.60,0.30 130.39,0.76 130.04,1.13 129.69,1.50 129.24,1.74 128.79,1.97 128.29,2.06 127.79,2.14 127.79,2.14 127.79,2.14 123.91,1.94 120.03,1.75 114.30,1.78 108.57,1.80 100.51,1.85 92.44,1.90 76.84,1.97 61.25,2.05 49.60,2.20 37.94,2.34 29.40,2.62 20.86,2.91 14.60,3.16 8.33,3.41 4.16,3.52 0,3.64 -0.43,3.59 -0.87,3.53 -1.28,3.38 -1.69,3.22 -2.05,2.97 -2.41,2.72 -2.70,2.39 -2.99,2.07 -3.20,1.68 -3.40,1.29 -3.51,0.86 -3.61,0.43 -3.61,-0.00 -3.61,-0.43 -3.51,-0.86 -3.40,-1.29 -3.20,-1.68 -2.99,-2.07 -2.70,-2.39 -2.41,-2.72 -2.05,-2.97 -1.69,-3.22 -1.28,-3.38 -0.87,-3.53 -0.43,-3.59 0.00,-3.64 0.00,-3.64 L 0,-3.64 Z"/></g><g transform="translate(85 65.5) rotate(0 33 -27.5)" stroke="none"><path fill="#1e1e1e" d="M -4.15,0.44 Q -4.15,0.44 -4.52,-4.89 -4.89,-10.23 -5.40,-14.89 -5.92,-19.55 -6.25,-24.38 -6.58,-29.21 -6.97,-34.39 -7.35,-39.57 -7.70,-42.81 -8.05,-46.05 -8.51,-48.98 -8.98,-51.91 -8.00,-54.30 -7.03,-56.69 -5.01,-57.53 -2.99,-58.37 -0.80,-58.53 1.39,-58.70 5.89,-58.44 10.39,-58.18 16.31,-57.98 22.24,-57.77 28.85,-57.91 35.46,-58.04 41.47,-58.19 47.48,-58.34 52.80,-58.37 58.12,-58.40 61.52,-58.57 64.93,-58.73 67.29,-58.64 69.66,-58.55 71.48,-56.99 73.31,-55.42 73.76,-51.74 74.20,-48.06 73.80,-44.01 73.39,-39.96 72.80,-35.13 72.21,-30.31 71.47,-24.92 70.73,-19.53 70.16,-15.63 69.60,-11.73 69.37,-8.80 69.15,-5.87 69.04,-3.53 68.94,-1.18 68.78,-0.58 68.62,0.01 68.28,0.54 67.93,1.06 67.44,1.44 66.95,1.83 66.36,2.03 65.77,2.24 65.15,2.25 64.52,2.26 63.93,2.07 63.33,1.88 62.83,1.50 62.33,1.13 61.97,0.62 61.61,0.11 61.44,-0.48 61.26,-1.08 61.29,-1.70 61.31,-2.33 61.54,-2.91 61.76,-3.49 62.16,-3.98 62.56,-4.46 63.09,-4.79 63.62,-5.12 64.23,-5.26 64.83,-5.40 65.46,-5.34 66.08,-5.28 66.65,-5.03 67.22,-4.77 67.68,-4.35 68.14,-3.93 68.44,-3.38 68.74,-2.83 68.85,-2.22 68.96,-1.60 68.86,-0.98 68.77,-0.37 68.48,0.18 68.20,0.74 67.75,1.17 67.30,1.61 66.74,1.88 66.18,2.15 65.56,2.22 64.94,2.30 64.33,2.17 63.71,2.05 63.17,1.73 62.64,1.42 62.22,0.95 61.81,0.48 61.58,-0.09 61.34,-0.67 61.29,-1.29 61.25,-1.92 61.25,-1.91 61.25,-1.91 61.60,-4.35 61.95,-6.79 62.47,-9.73 63.00,-12.66 63.52,-16.47 64.05,-20.28 64.51,-25.60 64.97,-30.92 65.19,-35.72 65.41,-40.53 65.22,-46.32 65.02,-52.12 61.64,-52.18 58.25,-52.25 53.01,-52.05 47.76,-51.86 41.76,-51.47 35.76,-51.09 29.01,-50.64 22.25,-50.19 16.34,-49.98 10.42,-49.76 4.75,-50.99 -0.91,-52.22 -1.13,-49.34 -1.35,-46.47 -1.30,-43.30 -1.24,-40.13 -0.69,-34.96 -0.14,-29.80 0.38,-25.16 0.92,-20.53 1.75,-15.78 2.59,-11.04 3.37,-5.74 4.15,-0.44 4.14,0.05 4.13,0.55 4.01,1.04 3.88,1.53 3.64,1.97 3.40,2.41 3.06,2.78 2.72,3.16 2.30,3.44 1.89,3.72 1.41,3.89 0.94,4.06 0.44,4.12 -0.05,4.17 -0.55,4.10 -1.05,4.04 -1.52,3.85 -1.98,3.67 -2.39,3.37 -2.80,3.08 -3.13,2.70 -3.46,2.32 -3.69,1.87 -3.92,1.42 -4.03,0.93 -4.15,0.44 -4.15,0.44 L -4.15,0.44 Z"/></g></svg>